<mxfile host="app.diagrams.net" modified="2024-05-04T21:50:55.551Z" agent="Mozilla/5.0 (Windows NT 10.0; Win64; x64) AppleWebKit/537.36 (KHTML, like Gecko) Chrome/116.0.0.0 Safari/537.36" etag="_zz1HdTsrKMdnqBWzFZg" version="24.3.1" type="device" pages="9">
  <diagram id="C5RBs43oDa-KdzZeNtuy" name="b8_task1">
    <mxGraphModel dx="426" dy="270" grid="1" gridSize="10" guides="1" tooltips="1" connect="1" arrows="0" fold="1" page="1" pageScale="1" pageWidth="827" pageHeight="1169" background="none" math="0" shadow="0">
      <root>
        <mxCell id="WIyWlLk6GJQsqaUBKTNV-0" />
        <mxCell id="WIyWlLk6GJQsqaUBKTNV-1" parent="WIyWlLk6GJQsqaUBKTNV-0" />
        <mxCell id="rskNuwfdnSehWkqVqAeB-4" value="" style="verticalLabelPosition=bottom;shadow=0;dashed=0;align=center;html=1;verticalAlign=top;shape=mxgraph.electrical.logic_gates.d_type_flip-flop_with_clear_2;" parent="WIyWlLk6GJQsqaUBKTNV-1" vertex="1">
          <mxGeometry x="254" y="180" width="100" height="90" as="geometry" />
        </mxCell>
        <mxCell id="rskNuwfdnSehWkqVqAeB-20" style="edgeStyle=orthogonalEdgeStyle;rounded=0;orthogonalLoop=1;jettySize=auto;html=1;exitX=1;exitY=0.79;exitDx=0;exitDy=0;exitPerimeter=0;" parent="WIyWlLk6GJQsqaUBKTNV-1" source="rskNuwfdnSehWkqVqAeB-5" edge="1">
          <mxGeometry relative="1" as="geometry">
            <mxPoint x="474.2758620689656" y="251.31034482758628" as="targetPoint" />
          </mxGeometry>
        </mxCell>
        <mxCell id="rskNuwfdnSehWkqVqAeB-5" value="" style="verticalLabelPosition=bottom;shadow=0;dashed=0;align=center;html=1;verticalAlign=top;shape=mxgraph.electrical.logic_gates.d_type_flip-flop_with_clear_2;" parent="WIyWlLk6GJQsqaUBKTNV-1" vertex="1">
          <mxGeometry x="374" y="180" width="100" height="90" as="geometry" />
        </mxCell>
        <mxCell id="rskNuwfdnSehWkqVqAeB-6" value="" style="verticalLabelPosition=bottom;shadow=0;dashed=0;align=center;html=1;verticalAlign=top;shape=mxgraph.electrical.logic_gates.d_type_flip-flop_with_clear_2;fillColor=none;" parent="WIyWlLk6GJQsqaUBKTNV-1" vertex="1">
          <mxGeometry x="486" y="180" width="100" height="90" as="geometry" />
        </mxCell>
        <mxCell id="rskNuwfdnSehWkqVqAeB-10" style="edgeStyle=orthogonalEdgeStyle;rounded=0;orthogonalLoop=1;jettySize=auto;html=1;exitX=1;exitY=0.36;exitDx=0;exitDy=0;exitPerimeter=0;entryX=0;entryY=0.36;entryDx=0;entryDy=0;entryPerimeter=0;strokeColor=none;" parent="WIyWlLk6GJQsqaUBKTNV-1" source="rskNuwfdnSehWkqVqAeB-24" target="rskNuwfdnSehWkqVqAeB-4" edge="1">
          <mxGeometry relative="1" as="geometry">
            <mxPoint x="233.9999999999999" y="212.39999999999998" as="sourcePoint" />
          </mxGeometry>
        </mxCell>
        <mxCell id="rskNuwfdnSehWkqVqAeB-14" style="edgeStyle=orthogonalEdgeStyle;rounded=0;orthogonalLoop=1;jettySize=auto;html=1;exitX=1;exitY=0.36;exitDx=0;exitDy=0;exitPerimeter=0;entryX=0.196;entryY=0.363;entryDx=0;entryDy=0;entryPerimeter=0;endArrow=none;endFill=0;" parent="WIyWlLk6GJQsqaUBKTNV-1" edge="1">
          <mxGeometry relative="1" as="geometry">
            <mxPoint x="232.9999999999999" y="212.39999999999998" as="sourcePoint" />
            <mxPoint x="272.5999999999999" y="212.66999999999996" as="targetPoint" />
            <Array as="points">
              <mxPoint x="253" y="212" />
            </Array>
          </mxGeometry>
        </mxCell>
        <mxCell id="rskNuwfdnSehWkqVqAeB-17" style="edgeStyle=orthogonalEdgeStyle;rounded=0;orthogonalLoop=1;jettySize=auto;html=1;exitX=1;exitY=0.36;exitDx=0;exitDy=0;exitPerimeter=0;entryX=0.06;entryY=0.361;entryDx=0;entryDy=0;entryPerimeter=0;endArrow=none;endFill=0;" parent="WIyWlLk6GJQsqaUBKTNV-1" source="rskNuwfdnSehWkqVqAeB-4" target="rskNuwfdnSehWkqVqAeB-5" edge="1">
          <mxGeometry relative="1" as="geometry" />
        </mxCell>
        <mxCell id="rskNuwfdnSehWkqVqAeB-19" style="edgeStyle=orthogonalEdgeStyle;rounded=0;orthogonalLoop=1;jettySize=auto;html=1;exitX=1;exitY=0.36;exitDx=0;exitDy=0;exitPerimeter=0;entryX=0;entryY=0.36;entryDx=0;entryDy=0;entryPerimeter=0;endArrow=none;endFill=0;" parent="WIyWlLk6GJQsqaUBKTNV-1" source="rskNuwfdnSehWkqVqAeB-5" target="rskNuwfdnSehWkqVqAeB-6" edge="1">
          <mxGeometry relative="1" as="geometry" />
        </mxCell>
        <mxCell id="rskNuwfdnSehWkqVqAeB-21" value="a" style="text;html=1;align=center;verticalAlign=middle;whiteSpace=wrap;rounded=0;" parent="WIyWlLk6GJQsqaUBKTNV-1" vertex="1">
          <mxGeometry x="556" y="188" width="60" height="30" as="geometry" />
        </mxCell>
        <mxCell id="rskNuwfdnSehWkqVqAeB-22" value="b" style="text;html=1;align=center;verticalAlign=middle;whiteSpace=wrap;rounded=0;" parent="WIyWlLk6GJQsqaUBKTNV-1" vertex="1">
          <mxGeometry x="434" y="188" width="60" height="30" as="geometry" />
        </mxCell>
        <mxCell id="rskNuwfdnSehWkqVqAeB-23" value="c" style="text;html=1;align=center;verticalAlign=middle;whiteSpace=wrap;rounded=0;" parent="WIyWlLk6GJQsqaUBKTNV-1" vertex="1">
          <mxGeometry x="318" y="188" width="60" height="30" as="geometry" />
        </mxCell>
        <mxCell id="rskNuwfdnSehWkqVqAeB-26" value="" style="endArrow=none;html=1;rounded=0;entryX=0.782;entryY=1.09;entryDx=0;entryDy=0;entryPerimeter=0;exitX=0.16;exitY=1.08;exitDx=0;exitDy=0;exitPerimeter=0;endFill=0;" parent="WIyWlLk6GJQsqaUBKTNV-1" edge="1">
          <mxGeometry width="50" height="50" relative="1" as="geometry">
            <mxPoint x="565.6" y="212.39999999999998" as="sourcePoint" />
            <mxPoint x="602.92" y="212.70000000000005" as="targetPoint" />
          </mxGeometry>
        </mxCell>
        <mxCell id="rskNuwfdnSehWkqVqAeB-24" value="d" style="text;html=1;align=center;verticalAlign=middle;whiteSpace=wrap;rounded=0;" parent="WIyWlLk6GJQsqaUBKTNV-1" vertex="1">
          <mxGeometry x="250" y="198" width="11" height="10" as="geometry" />
        </mxCell>
        <mxCell id="rskNuwfdnSehWkqVqAeB-29" value="" style="endArrow=none;html=1;rounded=0;exitX=0;exitY=0.79;exitDx=0;exitDy=0;exitPerimeter=0;" parent="WIyWlLk6GJQsqaUBKTNV-1" source="rskNuwfdnSehWkqVqAeB-5" edge="1">
          <mxGeometry width="50" height="50" relative="1" as="geometry">
            <mxPoint x="460" y="230" as="sourcePoint" />
            <mxPoint x="374" y="320" as="targetPoint" />
          </mxGeometry>
        </mxCell>
        <mxCell id="rskNuwfdnSehWkqVqAeB-30" value="" style="endArrow=none;html=1;rounded=0;exitX=0;exitY=0.79;exitDx=0;exitDy=0;exitPerimeter=0;" parent="WIyWlLk6GJQsqaUBKTNV-1" edge="1">
          <mxGeometry width="50" height="50" relative="1" as="geometry">
            <mxPoint x="486" y="250" as="sourcePoint" />
            <mxPoint x="486" y="319" as="targetPoint" />
          </mxGeometry>
        </mxCell>
        <mxCell id="rskNuwfdnSehWkqVqAeB-31" value="" style="endArrow=none;html=1;rounded=0;exitX=0;exitY=0.79;exitDx=0;exitDy=0;exitPerimeter=0;" parent="WIyWlLk6GJQsqaUBKTNV-1" edge="1">
          <mxGeometry width="50" height="50" relative="1" as="geometry">
            <mxPoint x="254" y="250" as="sourcePoint" />
            <mxPoint x="254" y="319" as="targetPoint" />
          </mxGeometry>
        </mxCell>
        <mxCell id="rskNuwfdnSehWkqVqAeB-32" value="" style="endArrow=none;html=1;rounded=0;" parent="WIyWlLk6GJQsqaUBKTNV-1" edge="1">
          <mxGeometry width="50" height="50" relative="1" as="geometry">
            <mxPoint x="486" y="319" as="sourcePoint" />
            <mxPoint x="240" y="319" as="targetPoint" />
          </mxGeometry>
        </mxCell>
        <mxCell id="rskNuwfdnSehWkqVqAeB-33" value="" style="endArrow=none;html=1;rounded=0;" parent="WIyWlLk6GJQsqaUBKTNV-1" edge="1">
          <mxGeometry width="50" height="50" relative="1" as="geometry">
            <mxPoint x="537" y="180" as="sourcePoint" />
            <mxPoint x="291" y="180" as="targetPoint" />
          </mxGeometry>
        </mxCell>
        <mxCell id="rskNuwfdnSehWkqVqAeB-34" value="" style="endArrow=none;html=1;rounded=0;" parent="WIyWlLk6GJQsqaUBKTNV-1" edge="1">
          <mxGeometry width="50" height="50" relative="1" as="geometry">
            <mxPoint x="291" y="150" as="sourcePoint" />
            <mxPoint x="291" y="180" as="targetPoint" />
          </mxGeometry>
        </mxCell>
        <mxCell id="rskNuwfdnSehWkqVqAeB-35" value="rst" style="text;html=1;align=center;verticalAlign=middle;whiteSpace=wrap;rounded=0;" parent="WIyWlLk6GJQsqaUBKTNV-1" vertex="1">
          <mxGeometry x="261" y="125" width="60" height="30" as="geometry" />
        </mxCell>
        <mxCell id="rskNuwfdnSehWkqVqAeB-36" value="clk" style="text;html=1;align=center;verticalAlign=middle;whiteSpace=wrap;rounded=0;" parent="WIyWlLk6GJQsqaUBKTNV-1" vertex="1">
          <mxGeometry x="190" y="300" width="60" height="30" as="geometry" />
        </mxCell>
      </root>
    </mxGraphModel>
  </diagram>
  <diagram id="5NrTFYZzbE3p1JH1IFR6" name="b8_task2">
    <mxGraphModel dx="227" dy="144" grid="1" gridSize="10" guides="1" tooltips="1" connect="1" arrows="1" fold="1" page="1" pageScale="1" pageWidth="827" pageHeight="1169" math="0" shadow="0">
      <root>
        <mxCell id="0" />
        <mxCell id="1" parent="0" />
        <mxCell id="czdXBp7fbdbKTt0V8npH-4" value="" style="endArrow=none;html=1;strokeWidth=1;rounded=0;" parent="1" edge="1">
          <mxGeometry width="100" relative="1" as="geometry">
            <mxPoint x="360" y="230" as="sourcePoint" />
            <mxPoint x="490" y="230" as="targetPoint" />
          </mxGeometry>
        </mxCell>
        <mxCell id="czdXBp7fbdbKTt0V8npH-6" value="" style="verticalLabelPosition=bottom;shadow=0;dashed=0;align=center;html=1;verticalAlign=top;shape=mxgraph.electrical.transmission.testPoint;direction=north;" parent="1" vertex="1">
          <mxGeometry x="340" y="225" width="20" height="10" as="geometry" />
        </mxCell>
        <mxCell id="czdXBp7fbdbKTt0V8npH-7" value="" style="verticalLabelPosition=bottom;shadow=0;dashed=0;align=center;html=1;verticalAlign=top;shape=mxgraph.electrical.transmission.testPoint;direction=south;" parent="1" vertex="1">
          <mxGeometry x="490" y="225" width="20" height="10" as="geometry" />
        </mxCell>
        <mxCell id="0hQVGV84vPR2AaqO3weu-1" value="d" style="text;html=1;align=center;verticalAlign=middle;whiteSpace=wrap;rounded=0;" parent="1" vertex="1">
          <mxGeometry x="480" y="200" width="60" height="30" as="geometry" />
        </mxCell>
        <mxCell id="0hQVGV84vPR2AaqO3weu-2" value="a" style="text;html=1;align=center;verticalAlign=middle;whiteSpace=wrap;rounded=0;" parent="1" vertex="1">
          <mxGeometry x="310" y="195" width="60" height="30" as="geometry" />
        </mxCell>
      </root>
    </mxGraphModel>
  </diagram>
  <diagram id="qhBlS781f9QxaXLbHI_B" name="b8_task3">
    <mxGraphModel dx="139" dy="88" grid="1" gridSize="10" guides="1" tooltips="1" connect="1" arrows="1" fold="1" page="1" pageScale="1" pageWidth="827" pageHeight="1169" math="0" shadow="0">
      <root>
        <mxCell id="0" />
        <mxCell id="1" parent="0" />
        <mxCell id="FFM7EKXQwVWuYpyYMDhY-1" value="" style="verticalLabelPosition=bottom;shadow=0;dashed=0;align=center;html=1;verticalAlign=top;shape=mxgraph.electrical.logic_gates.d_type_flip-flop_with_clear_2;fillColor=none;" parent="1" vertex="1">
          <mxGeometry x="486" y="180" width="100" height="90" as="geometry" />
        </mxCell>
        <mxCell id="4eO4xQtT4XNYVzWCsKHN-1" value="c" style="text;html=1;align=center;verticalAlign=middle;whiteSpace=wrap;rounded=0;" parent="1" vertex="1">
          <mxGeometry x="468" y="202" width="20" height="20" as="geometry" />
        </mxCell>
        <mxCell id="4eO4xQtT4XNYVzWCsKHN-2" value="a" style="text;html=1;align=center;verticalAlign=middle;whiteSpace=wrap;rounded=0;" parent="1" vertex="1">
          <mxGeometry x="564" y="198" width="60" height="30" as="geometry" />
        </mxCell>
      </root>
    </mxGraphModel>
  </diagram>
  <diagram id="Lt_RQY3R6Nolj4YKQEPh" name="b8_task4">
    <mxGraphModel dx="278" dy="176" grid="1" gridSize="10" guides="1" tooltips="1" connect="1" arrows="1" fold="1" page="1" pageScale="1" pageWidth="827" pageHeight="1169" math="0" shadow="0">
      <root>
        <mxCell id="0" />
        <mxCell id="1" parent="0" />
        <mxCell id="7Ysbv1AQSHEvawjjCpxs-1" value="" style="verticalLabelPosition=bottom;shadow=0;dashed=0;align=center;html=1;verticalAlign=top;shape=mxgraph.electrical.logic_gates.d_type_flip-flop_with_clear_2;fillColor=none;" parent="1" vertex="1">
          <mxGeometry x="486" y="180" width="100" height="90" as="geometry" />
        </mxCell>
        <mxCell id="7Ysbv1AQSHEvawjjCpxs-3" style="edgeStyle=orthogonalEdgeStyle;rounded=0;orthogonalLoop=1;jettySize=auto;html=1;exitX=1;exitY=0.5;exitDx=0;exitDy=-5;exitPerimeter=0;entryX=0.204;entryY=0.363;entryDx=0;entryDy=0;entryPerimeter=0;endArrow=none;endFill=0;" parent="1" source="7Ysbv1AQSHEvawjjCpxs-2" target="7Ysbv1AQSHEvawjjCpxs-1" edge="1">
          <mxGeometry relative="1" as="geometry" />
        </mxCell>
        <mxCell id="7Ysbv1AQSHEvawjjCpxs-5" value="output" style="text;html=1;align=center;verticalAlign=middle;whiteSpace=wrap;rounded=0;" parent="1" vertex="1">
          <mxGeometry x="595" y="206" width="20" height="12" as="geometry" />
        </mxCell>
        <mxCell id="7Ysbv1AQSHEvawjjCpxs-13" value="" style="group" parent="1" vertex="1" connectable="0">
          <mxGeometry x="369" y="157.75" width="90" height="140.51" as="geometry" />
        </mxCell>
        <mxCell id="7Ysbv1AQSHEvawjjCpxs-2" value="Mux" style="shadow=0;dashed=0;align=center;html=1;strokeWidth=1;shape=mxgraph.electrical.abstract.mux2;whiteSpace=wrap;points=[[0,0.21666666666666667,0,0,3],[0,0.37,0,0,0],[0,0.51,0,0,0],[0,0.65,0,0,3],[0,0.67,0,0,0],[0.375,1,0,10,0],[1,0.5,0,0,-5]];" parent="7Ysbv1AQSHEvawjjCpxs-13" vertex="1">
          <mxGeometry x="10" width="80" height="120" as="geometry" />
        </mxCell>
        <mxCell id="7Ysbv1AQSHEvawjjCpxs-4" value="a" style="text;html=1;align=center;verticalAlign=middle;whiteSpace=wrap;rounded=0;" parent="7Ysbv1AQSHEvawjjCpxs-13" vertex="1">
          <mxGeometry x="21" y="119.99999999999999" width="60" height="30" as="geometry" />
        </mxCell>
        <mxCell id="7Ysbv1AQSHEvawjjCpxs-7" value="&#39;1&#39;" style="text;html=1;align=center;verticalAlign=middle;whiteSpace=wrap;rounded=0;" parent="7Ysbv1AQSHEvawjjCpxs-13" vertex="1">
          <mxGeometry x="-3" y="74.50999999999999" width="10" height="18" as="geometry" />
        </mxCell>
        <mxCell id="7Ysbv1AQSHEvawjjCpxs-8" value="" style="endArrow=none;html=1;rounded=0;exitX=0;exitY=0.37;exitDx=0;exitDy=0;exitPerimeter=0;jumpSize=6;" parent="7Ysbv1AQSHEvawjjCpxs-13" source="7Ysbv1AQSHEvawjjCpxs-2" edge="1">
          <mxGeometry width="50" height="50" relative="1" as="geometry">
            <mxPoint y="80.50999999999999" as="sourcePoint" />
            <mxPoint x="20" y="44.50999999999999" as="targetPoint" />
          </mxGeometry>
        </mxCell>
        <mxCell id="7Ysbv1AQSHEvawjjCpxs-9" style="edgeStyle=orthogonalEdgeStyle;rounded=0;orthogonalLoop=1;jettySize=auto;html=1;exitX=0;exitY=0.51;exitDx=0;exitDy=0;exitPerimeter=0;entryX=0.125;entryY=0.515;entryDx=0;entryDy=0;entryPerimeter=0;endArrow=none;endFill=0;" parent="7Ysbv1AQSHEvawjjCpxs-13" source="7Ysbv1AQSHEvawjjCpxs-2" target="7Ysbv1AQSHEvawjjCpxs-2" edge="1">
          <mxGeometry relative="1" as="geometry" />
        </mxCell>
        <mxCell id="7Ysbv1AQSHEvawjjCpxs-10" value="&lt;font style=&quot;font-size: 6px;&quot;&gt;1&lt;/font&gt;" style="text;html=1;align=center;verticalAlign=middle;whiteSpace=wrap;rounded=0;" parent="7Ysbv1AQSHEvawjjCpxs-13" vertex="1">
          <mxGeometry x="19" y="34.50999999999999" width="10" height="18" as="geometry" />
        </mxCell>
        <mxCell id="7Ysbv1AQSHEvawjjCpxs-11" value="&lt;font style=&quot;font-size: 6px;&quot;&gt;2&lt;/font&gt;" style="text;html=1;align=center;verticalAlign=middle;whiteSpace=wrap;rounded=0;" parent="7Ysbv1AQSHEvawjjCpxs-13" vertex="1">
          <mxGeometry x="19" y="50.50999999999999" width="10" height="18" as="geometry" />
        </mxCell>
        <mxCell id="7Ysbv1AQSHEvawjjCpxs-12" value="&lt;font style=&quot;font-size: 6px;&quot;&gt;3&lt;/font&gt;" style="text;html=1;align=center;verticalAlign=middle;whiteSpace=wrap;rounded=0;fillColor=default;" parent="7Ysbv1AQSHEvawjjCpxs-13" vertex="1">
          <mxGeometry x="21" y="70.50999999999999" width="10" height="18" as="geometry" />
        </mxCell>
        <mxCell id="7Ysbv1AQSHEvawjjCpxs-15" value="&#39;1&#39;" style="text;html=1;align=center;verticalAlign=middle;whiteSpace=wrap;rounded=0;" parent="7Ysbv1AQSHEvawjjCpxs-13" vertex="1">
          <mxGeometry x="-3" y="22.50999999999999" width="10" height="18" as="geometry" />
        </mxCell>
        <mxCell id="7Ysbv1AQSHEvawjjCpxs-6" value="&#39;0&#39;" style="text;html=1;align=center;verticalAlign=middle;whiteSpace=wrap;rounded=0;" parent="7Ysbv1AQSHEvawjjCpxs-13" vertex="1">
          <mxGeometry x="-28" y="30.50999999999999" width="60" height="30" as="geometry" />
        </mxCell>
        <mxCell id="7Ysbv1AQSHEvawjjCpxs-17" value="&#39;0&#39;" style="text;html=1;align=center;verticalAlign=middle;whiteSpace=wrap;rounded=0;" parent="1" vertex="1">
          <mxGeometry x="342" y="208" width="61" height="26" as="geometry" />
        </mxCell>
      </root>
    </mxGraphModel>
  </diagram>
  <diagram id="3qEJSY2fR6d6PTyHB5rH" name="b8_task5">
    <mxGraphModel dx="401" dy="254" grid="1" gridSize="10" guides="1" tooltips="1" connect="1" arrows="1" fold="1" page="1" pageScale="1" pageWidth="827" pageHeight="1169" math="0" shadow="0">
      <root>
        <mxCell id="0" />
        <mxCell id="1" parent="0" />
        <mxCell id="hMzh5PvWC5OO-M-jNddO-1" value="" style="verticalLabelPosition=bottom;shadow=0;dashed=0;align=center;html=1;verticalAlign=top;shape=mxgraph.electrical.logic_gates.d_type_flip-flop_with_clear_2;fillColor=none;" parent="1" vertex="1">
          <mxGeometry x="486" y="180" width="100" height="90" as="geometry" />
        </mxCell>
        <mxCell id="hMzh5PvWC5OO-M-jNddO-2" style="edgeStyle=orthogonalEdgeStyle;rounded=0;orthogonalLoop=1;jettySize=auto;html=1;exitX=1;exitY=0.5;exitDx=0;exitDy=-5;exitPerimeter=0;entryX=0.204;entryY=0.363;entryDx=0;entryDy=0;entryPerimeter=0;endArrow=none;endFill=0;" parent="1" source="hMzh5PvWC5OO-M-jNddO-5" target="hMzh5PvWC5OO-M-jNddO-1" edge="1">
          <mxGeometry relative="1" as="geometry" />
        </mxCell>
        <mxCell id="hMzh5PvWC5OO-M-jNddO-3" value="a" style="text;html=1;align=center;verticalAlign=middle;whiteSpace=wrap;rounded=0;" parent="1" vertex="1">
          <mxGeometry x="564" y="198" width="60" height="30" as="geometry" />
        </mxCell>
        <mxCell id="hMzh5PvWC5OO-M-jNddO-4" value="" style="group" parent="1" vertex="1" connectable="0">
          <mxGeometry x="369" y="157.75" width="90" height="140.51" as="geometry" />
        </mxCell>
        <mxCell id="hMzh5PvWC5OO-M-jNddO-5" value="Mux" style="shadow=0;dashed=0;align=center;html=1;strokeWidth=1;shape=mxgraph.electrical.abstract.mux2;whiteSpace=wrap;points=[[0,0.21666666666666667,0,0,3],[0,0.37,0,0,0],[0,0.51,0,0,0],[0,0.65,0,0,3],[0,0.67,0,0,0],[0.375,1,0,10,0],[1,0.5,0,0,-5]];" parent="hMzh5PvWC5OO-M-jNddO-4" vertex="1">
          <mxGeometry x="10" width="80" height="120" as="geometry" />
        </mxCell>
        <mxCell id="hMzh5PvWC5OO-M-jNddO-6" value="sel" style="text;html=1;align=center;verticalAlign=middle;whiteSpace=wrap;rounded=0;" parent="hMzh5PvWC5OO-M-jNddO-4" vertex="1">
          <mxGeometry x="40" y="120" width="21" height="20" as="geometry" />
        </mxCell>
        <mxCell id="hMzh5PvWC5OO-M-jNddO-7" value="&#39;1&#39;" style="text;html=1;align=center;verticalAlign=middle;whiteSpace=wrap;rounded=0;" parent="hMzh5PvWC5OO-M-jNddO-4" vertex="1">
          <mxGeometry x="-3" y="74.50999999999999" width="10" height="18" as="geometry" />
        </mxCell>
        <mxCell id="hMzh5PvWC5OO-M-jNddO-8" value="" style="endArrow=none;html=1;rounded=0;exitX=0;exitY=0.37;exitDx=0;exitDy=0;exitPerimeter=0;jumpSize=6;" parent="hMzh5PvWC5OO-M-jNddO-4" source="hMzh5PvWC5OO-M-jNddO-5" edge="1">
          <mxGeometry width="50" height="50" relative="1" as="geometry">
            <mxPoint y="80.50999999999999" as="sourcePoint" />
            <mxPoint x="20" y="44.50999999999999" as="targetPoint" />
          </mxGeometry>
        </mxCell>
        <mxCell id="hMzh5PvWC5OO-M-jNddO-9" style="edgeStyle=orthogonalEdgeStyle;rounded=0;orthogonalLoop=1;jettySize=auto;html=1;exitX=0;exitY=0.51;exitDx=0;exitDy=0;exitPerimeter=0;entryX=0.125;entryY=0.515;entryDx=0;entryDy=0;entryPerimeter=0;endArrow=none;endFill=0;" parent="hMzh5PvWC5OO-M-jNddO-4" source="hMzh5PvWC5OO-M-jNddO-5" target="hMzh5PvWC5OO-M-jNddO-5" edge="1">
          <mxGeometry relative="1" as="geometry" />
        </mxCell>
        <mxCell id="hMzh5PvWC5OO-M-jNddO-10" value="&lt;font style=&quot;font-size: 6px;&quot;&gt;1&lt;/font&gt;" style="text;html=1;align=center;verticalAlign=middle;whiteSpace=wrap;rounded=0;" parent="hMzh5PvWC5OO-M-jNddO-4" vertex="1">
          <mxGeometry x="19" y="34.50999999999999" width="10" height="18" as="geometry" />
        </mxCell>
        <mxCell id="hMzh5PvWC5OO-M-jNddO-40" style="edgeStyle=orthogonalEdgeStyle;rounded=0;orthogonalLoop=1;jettySize=auto;html=1;endArrow=none;endFill=0;" parent="hMzh5PvWC5OO-M-jNddO-4" edge="1">
          <mxGeometry relative="1" as="geometry">
            <mxPoint x="-39" y="44.25" as="targetPoint" />
            <mxPoint x="19" y="61.55769230769232" as="sourcePoint" />
            <Array as="points">
              <mxPoint x="-9" y="62" />
              <mxPoint x="-39" y="62" />
            </Array>
          </mxGeometry>
        </mxCell>
        <mxCell id="hMzh5PvWC5OO-M-jNddO-11" value="&lt;font style=&quot;font-size: 6px;&quot;&gt;2&lt;/font&gt;" style="text;html=1;align=center;verticalAlign=middle;whiteSpace=wrap;rounded=0;" parent="hMzh5PvWC5OO-M-jNddO-4" vertex="1">
          <mxGeometry x="19" y="50.50999999999999" width="10" height="18" as="geometry" />
        </mxCell>
        <mxCell id="hMzh5PvWC5OO-M-jNddO-12" value="&lt;font style=&quot;font-size: 6px;&quot;&gt;3&lt;/font&gt;" style="text;html=1;align=center;verticalAlign=middle;whiteSpace=wrap;rounded=0;fillColor=default;" parent="hMzh5PvWC5OO-M-jNddO-4" vertex="1">
          <mxGeometry x="21" y="70.50999999999999" width="10" height="18" as="geometry" />
        </mxCell>
        <mxCell id="hMzh5PvWC5OO-M-jNddO-13" value="&#39;1&#39;" style="text;html=1;align=center;verticalAlign=middle;whiteSpace=wrap;rounded=0;" parent="hMzh5PvWC5OO-M-jNddO-4" vertex="1">
          <mxGeometry x="-3" y="22.50999999999999" width="10" height="18" as="geometry" />
        </mxCell>
        <mxCell id="hMzh5PvWC5OO-M-jNddO-16" value="" style="group" parent="1" vertex="1" connectable="0">
          <mxGeometry x="220" y="147" width="90" height="140.51" as="geometry" />
        </mxCell>
        <mxCell id="hMzh5PvWC5OO-M-jNddO-38" style="edgeStyle=orthogonalEdgeStyle;rounded=0;orthogonalLoop=1;jettySize=auto;html=1;exitX=1;exitY=0.5;exitDx=0;exitDy=-5;exitPerimeter=0;endArrow=none;endFill=0;" parent="hMzh5PvWC5OO-M-jNddO-16" edge="1">
          <mxGeometry relative="1" as="geometry">
            <mxPoint x="160" y="55" as="targetPoint" />
            <mxPoint x="90" y="55" as="sourcePoint" />
          </mxGeometry>
        </mxCell>
        <mxCell id="hMzh5PvWC5OO-M-jNddO-17" value="Mux" style="shadow=0;dashed=0;align=center;html=1;strokeWidth=1;shape=mxgraph.electrical.abstract.mux2;whiteSpace=wrap;points=[[0,0.21666666666666667,0,0,3],[0,0.37,0,0,0],[0,0.51,0,0,0],[0,0.65,0,0,3],[0,0.67,0,0,0],[0.375,1,0,10,0],[1,0.5,0,0,-5]];" parent="hMzh5PvWC5OO-M-jNddO-16" vertex="1">
          <mxGeometry x="10" width="80" height="120" as="geometry" />
        </mxCell>
        <mxCell id="hMzh5PvWC5OO-M-jNddO-18" value="cmd" style="text;html=1;align=center;verticalAlign=middle;whiteSpace=wrap;rounded=0;" parent="hMzh5PvWC5OO-M-jNddO-16" vertex="1">
          <mxGeometry x="40" y="120" width="21" height="20" as="geometry" />
        </mxCell>
        <mxCell id="hMzh5PvWC5OO-M-jNddO-19" value="&#39;1&#39;" style="text;html=1;align=center;verticalAlign=middle;whiteSpace=wrap;rounded=0;" parent="hMzh5PvWC5OO-M-jNddO-16" vertex="1">
          <mxGeometry x="-3" y="74.50999999999999" width="10" height="18" as="geometry" />
        </mxCell>
        <mxCell id="hMzh5PvWC5OO-M-jNddO-20" value="" style="endArrow=none;html=1;rounded=0;exitX=0;exitY=0.37;exitDx=0;exitDy=0;exitPerimeter=0;jumpSize=6;" parent="hMzh5PvWC5OO-M-jNddO-16" source="hMzh5PvWC5OO-M-jNddO-17" edge="1">
          <mxGeometry width="50" height="50" relative="1" as="geometry">
            <mxPoint y="80.50999999999999" as="sourcePoint" />
            <mxPoint x="20" y="44.50999999999999" as="targetPoint" />
          </mxGeometry>
        </mxCell>
        <mxCell id="hMzh5PvWC5OO-M-jNddO-21" style="edgeStyle=orthogonalEdgeStyle;rounded=0;orthogonalLoop=1;jettySize=auto;html=1;exitX=0;exitY=0.51;exitDx=0;exitDy=0;exitPerimeter=0;entryX=0.125;entryY=0.515;entryDx=0;entryDy=0;entryPerimeter=0;endArrow=none;endFill=0;" parent="hMzh5PvWC5OO-M-jNddO-16" source="hMzh5PvWC5OO-M-jNddO-17" target="hMzh5PvWC5OO-M-jNddO-17" edge="1">
          <mxGeometry relative="1" as="geometry" />
        </mxCell>
        <mxCell id="hMzh5PvWC5OO-M-jNddO-22" value="&lt;font style=&quot;font-size: 6px;&quot;&gt;1&lt;/font&gt;" style="text;html=1;align=center;verticalAlign=middle;whiteSpace=wrap;rounded=0;" parent="hMzh5PvWC5OO-M-jNddO-16" vertex="1">
          <mxGeometry x="19" y="34.50999999999999" width="10" height="18" as="geometry" />
        </mxCell>
        <mxCell id="hMzh5PvWC5OO-M-jNddO-23" value="&lt;font style=&quot;font-size: 6px;&quot;&gt;2&lt;/font&gt;" style="text;html=1;align=center;verticalAlign=middle;whiteSpace=wrap;rounded=0;" parent="hMzh5PvWC5OO-M-jNddO-16" vertex="1">
          <mxGeometry x="19" y="50.50999999999999" width="10" height="18" as="geometry" />
        </mxCell>
        <mxCell id="hMzh5PvWC5OO-M-jNddO-24" value="&lt;font style=&quot;font-size: 6px;&quot;&gt;3&lt;/font&gt;" style="text;html=1;align=center;verticalAlign=middle;whiteSpace=wrap;rounded=0;fillColor=default;" parent="hMzh5PvWC5OO-M-jNddO-16" vertex="1">
          <mxGeometry x="21" y="70.50999999999999" width="10" height="18" as="geometry" />
        </mxCell>
        <mxCell id="hMzh5PvWC5OO-M-jNddO-25" value="&#39;0&#39;" style="text;html=1;align=center;verticalAlign=middle;whiteSpace=wrap;rounded=0;" parent="hMzh5PvWC5OO-M-jNddO-16" vertex="1">
          <mxGeometry x="-3" y="22.50999999999999" width="10" height="18" as="geometry" />
        </mxCell>
        <mxCell id="hMzh5PvWC5OO-M-jNddO-43" value="&#39;0&#39;" style="text;html=1;align=center;verticalAlign=middle;whiteSpace=wrap;rounded=0;" parent="hMzh5PvWC5OO-M-jNddO-16" vertex="1">
          <mxGeometry x="-3" y="35.50999999999999" width="10" height="18" as="geometry" />
        </mxCell>
        <mxCell id="hMzh5PvWC5OO-M-jNddO-56" value="&#39;1&#39;" style="text;html=1;align=center;verticalAlign=middle;whiteSpace=wrap;rounded=0;" parent="hMzh5PvWC5OO-M-jNddO-16" vertex="1">
          <mxGeometry x="-3" y="53.50999999999999" width="10" height="18" as="geometry" />
        </mxCell>
        <mxCell id="hMzh5PvWC5OO-M-jNddO-41" value="s" style="text;html=1;align=center;verticalAlign=middle;whiteSpace=wrap;rounded=0;" parent="1" vertex="1">
          <mxGeometry x="304" y="182" width="21" height="20" as="geometry" />
        </mxCell>
      </root>
    </mxGraphModel>
  </diagram>
  <diagram id="GMjNG5AqekkMZlFCEf8B" name="b8_task6">
    <mxGraphModel dx="278" dy="176" grid="1" gridSize="10" guides="1" tooltips="1" connect="1" arrows="1" fold="1" page="1" pageScale="1" pageWidth="827" pageHeight="1169" math="0" shadow="0">
      <root>
        <mxCell id="0" />
        <mxCell id="1" parent="0" />
        <mxCell id="WJrHUlUZo45Uw1IuYUuO-1" value="" style="verticalLabelPosition=bottom;shadow=0;dashed=0;align=center;html=1;verticalAlign=top;shape=mxgraph.electrical.logic_gates.d_type_flip-flop_with_clear_2;fillColor=none;" parent="1" vertex="1">
          <mxGeometry x="486" y="180" width="100" height="90" as="geometry" />
        </mxCell>
        <mxCell id="WJrHUlUZo45Uw1IuYUuO-2" value="Mux" style="shadow=0;dashed=0;align=center;html=1;strokeWidth=1;shape=mxgraph.electrical.abstract.mux2;whiteSpace=wrap;points=[[0,0.21666666666666667,0,0,3],[0,0.65,0,0,3],[0.375,1,0,10,0],[1,0.5,0,0,-5]];" parent="1" vertex="1">
          <mxGeometry x="380" y="157.49" width="80" height="120" as="geometry" />
        </mxCell>
        <mxCell id="WJrHUlUZo45Uw1IuYUuO-3" style="edgeStyle=orthogonalEdgeStyle;rounded=0;orthogonalLoop=1;jettySize=auto;html=1;exitX=1;exitY=0.5;exitDx=0;exitDy=-5;exitPerimeter=0;entryX=0.204;entryY=0.363;entryDx=0;entryDy=0;entryPerimeter=0;endArrow=none;endFill=0;" parent="1" source="WJrHUlUZo45Uw1IuYUuO-2" target="WJrHUlUZo45Uw1IuYUuO-1" edge="1">
          <mxGeometry relative="1" as="geometry" />
        </mxCell>
        <mxCell id="WJrHUlUZo45Uw1IuYUuO-4" value="s" style="text;html=1;align=center;verticalAlign=middle;whiteSpace=wrap;rounded=0;" parent="1" vertex="1">
          <mxGeometry x="410" y="270" width="20" height="30" as="geometry" />
        </mxCell>
        <mxCell id="WJrHUlUZo45Uw1IuYUuO-5" value="a" style="text;html=1;align=center;verticalAlign=middle;whiteSpace=wrap;rounded=0;" parent="1" vertex="1">
          <mxGeometry x="564" y="198" width="60" height="30" as="geometry" />
        </mxCell>
        <mxCell id="WJrHUlUZo45Uw1IuYUuO-6" value="&#39;0&#39;" style="text;html=1;align=center;verticalAlign=middle;whiteSpace=wrap;rounded=0;" parent="1" vertex="1">
          <mxGeometry x="340" y="224" width="60" height="30" as="geometry" />
        </mxCell>
        <mxCell id="eCh3muWXmyeV3S_fbW2i-1" style="edgeStyle=orthogonalEdgeStyle;rounded=0;orthogonalLoop=1;jettySize=auto;html=1;exitX=1;exitY=0.36;exitDx=0;exitDy=0;exitPerimeter=0;entryX=0.196;entryY=0.363;entryDx=0;entryDy=0;entryPerimeter=0;endArrow=none;endFill=0;" parent="1" edge="1">
          <mxGeometry relative="1" as="geometry">
            <mxPoint x="350.1999999999999" y="186.39999999999998" as="sourcePoint" />
            <mxPoint x="389.7999999999999" y="186.66999999999996" as="targetPoint" />
            <Array as="points">
              <mxPoint x="370.2" y="186" />
            </Array>
          </mxGeometry>
        </mxCell>
        <mxCell id="eCh3muWXmyeV3S_fbW2i-2" value="c" style="text;html=1;align=center;verticalAlign=middle;whiteSpace=wrap;rounded=0;" parent="1" vertex="1">
          <mxGeometry x="367.2" y="172" width="11" height="10" as="geometry" />
        </mxCell>
      </root>
    </mxGraphModel>
  </diagram>
  <diagram id="TnY_vwbwjMObSOUB7u-9" name="b8_task7">
    <mxGraphModel dx="248" dy="157" grid="1" gridSize="10" guides="1" tooltips="1" connect="1" arrows="1" fold="1" page="1" pageScale="1" pageWidth="827" pageHeight="1169" math="0" shadow="0">
      <root>
        <mxCell id="0" />
        <mxCell id="1" parent="0" />
        <mxCell id="oDc5ZY1PGIJvI7hDLIJE-4" style="edgeStyle=orthogonalEdgeStyle;rounded=0;orthogonalLoop=1;jettySize=auto;html=1;exitX=1;exitY=0.36;exitDx=0;exitDy=0;exitPerimeter=0;endArrow=none;endFill=0;" parent="1" source="W3WDGOW4jD6cixENMmsI-1" edge="1">
          <mxGeometry relative="1" as="geometry">
            <mxPoint x="540" y="202.22222222222223" as="targetPoint" />
          </mxGeometry>
        </mxCell>
        <mxCell id="W3WDGOW4jD6cixENMmsI-1" value="" style="verticalLabelPosition=bottom;shadow=0;dashed=0;align=center;html=1;verticalAlign=top;shape=mxgraph.electrical.logic_gates.d_type_flip-flop_with_clear_2;fillColor=none;" parent="1" vertex="1">
          <mxGeometry x="364" y="170" width="100" height="90" as="geometry" />
        </mxCell>
        <mxCell id="oDc5ZY1PGIJvI7hDLIJE-1" value="a" style="text;html=1;align=center;verticalAlign=middle;whiteSpace=wrap;rounded=0;" parent="1" vertex="1">
          <mxGeometry x="540" y="196" width="16" height="12" as="geometry" />
        </mxCell>
        <mxCell id="oDc5ZY1PGIJvI7hDLIJE-2" value="b" style="text;html=1;align=center;verticalAlign=middle;whiteSpace=wrap;rounded=0;" parent="1" vertex="1">
          <mxGeometry x="340" y="196" width="16" height="12" as="geometry" />
        </mxCell>
        <mxCell id="oDc5ZY1PGIJvI7hDLIJE-8" value="" style="endArrow=none;html=1;rounded=0;" parent="1" edge="1">
          <mxGeometry width="50" height="50" relative="1" as="geometry">
            <mxPoint x="476" y="203" as="sourcePoint" />
            <mxPoint x="476" y="153" as="targetPoint" />
          </mxGeometry>
        </mxCell>
        <mxCell id="oDc5ZY1PGIJvI7hDLIJE-9" value="" style="endArrow=none;html=1;rounded=0;" parent="1" edge="1">
          <mxGeometry width="50" height="50" relative="1" as="geometry">
            <mxPoint x="316" y="153" as="sourcePoint" />
            <mxPoint x="476" y="153" as="targetPoint" />
          </mxGeometry>
        </mxCell>
        <mxCell id="oDc5ZY1PGIJvI7hDLIJE-10" value="c" style="text;html=1;align=center;verticalAlign=middle;whiteSpace=wrap;rounded=0;" parent="1" vertex="1">
          <mxGeometry x="303" y="146" width="16" height="12" as="geometry" />
        </mxCell>
      </root>
    </mxGraphModel>
  </diagram>
  <diagram id="rJtPiYgaR4yohUz1vMFL" name="b8_task9">
    <mxGraphModel dx="413" dy="262" grid="1" gridSize="10" guides="1" tooltips="1" connect="1" arrows="1" fold="1" page="1" pageScale="1" pageWidth="827" pageHeight="1169" math="0" shadow="0">
      <root>
        <mxCell id="0" />
        <mxCell id="1" parent="0" />
        <mxCell id="3UTfdaWPqU7CWOhVLIt3-4" style="edgeStyle=orthogonalEdgeStyle;rounded=0;orthogonalLoop=1;jettySize=auto;html=1;exitX=0;exitY=0.25;exitDx=0;exitDy=0;exitPerimeter=0;endArrow=none;endFill=0;" parent="1" source="3UTfdaWPqU7CWOhVLIt3-1" edge="1">
          <mxGeometry relative="1" as="geometry">
            <mxPoint x="390" y="230" as="targetPoint" />
            <Array as="points">
              <mxPoint x="250" y="215" />
              <mxPoint x="250" y="150" />
              <mxPoint x="390" y="150" />
            </Array>
          </mxGeometry>
        </mxCell>
        <mxCell id="3UTfdaWPqU7CWOhVLIt3-5" style="edgeStyle=orthogonalEdgeStyle;rounded=0;orthogonalLoop=1;jettySize=auto;html=1;exitX=0;exitY=0.75;exitDx=0;exitDy=0;exitPerimeter=0;endArrow=none;endFill=0;" parent="1" source="3UTfdaWPqU7CWOhVLIt3-1" edge="1">
          <mxGeometry relative="1" as="geometry">
            <mxPoint x="190" y="245" as="targetPoint" />
          </mxGeometry>
        </mxCell>
        <mxCell id="3UTfdaWPqU7CWOhVLIt3-1" value="" style="verticalLabelPosition=bottom;shadow=0;dashed=0;align=center;html=1;verticalAlign=top;shape=mxgraph.electrical.logic_gates.logic_gate;operation=xor;" parent="1" vertex="1">
          <mxGeometry x="270" y="200" width="100" height="60" as="geometry" />
        </mxCell>
        <mxCell id="3UTfdaWPqU7CWOhVLIt3-2" value="" style="verticalLabelPosition=bottom;shadow=0;dashed=0;align=center;html=1;verticalAlign=top;shape=mxgraph.electrical.logic_gates.inverter_2" parent="1" vertex="1">
          <mxGeometry x="470" y="200" width="100" height="60" as="geometry" />
        </mxCell>
        <mxCell id="3UTfdaWPqU7CWOhVLIt3-3" style="edgeStyle=orthogonalEdgeStyle;rounded=0;orthogonalLoop=1;jettySize=auto;html=1;exitX=1;exitY=0.5;exitDx=0;exitDy=0;exitPerimeter=0;entryX=0;entryY=0.5;entryDx=0;entryDy=0;entryPerimeter=0;endArrow=none;endFill=0;" parent="1" source="3UTfdaWPqU7CWOhVLIt3-1" target="3UTfdaWPqU7CWOhVLIt3-2" edge="1">
          <mxGeometry relative="1" as="geometry" />
        </mxCell>
        <mxCell id="5ILCI2ofK7DUyNjGpBR_-1" value="&lt;font style=&quot;font-size: 15px;&quot;&gt;b&lt;/font&gt;" style="text;html=1;align=center;verticalAlign=middle;whiteSpace=wrap;rounded=0;" parent="1" vertex="1">
          <mxGeometry x="360" y="210" width="16" height="12" as="geometry" />
        </mxCell>
        <mxCell id="5ILCI2ofK7DUyNjGpBR_-2" value="&lt;font style=&quot;font-size: 15px;&quot;&gt;c&lt;/font&gt;" style="text;html=1;align=center;verticalAlign=middle;whiteSpace=wrap;rounded=0;" parent="1" vertex="1">
          <mxGeometry x="173" y="237" width="16" height="12" as="geometry" />
        </mxCell>
        <mxCell id="5ILCI2ofK7DUyNjGpBR_-3" value="&lt;font style=&quot;font-size: 15px;&quot;&gt;a&lt;/font&gt;" style="text;html=1;align=center;verticalAlign=middle;whiteSpace=wrap;rounded=0;" parent="1" vertex="1">
          <mxGeometry x="574" y="222" width="16" height="12" as="geometry" />
        </mxCell>
      </root>
    </mxGraphModel>
  </diagram>
  <diagram id="Z_f9QHzKhgvJBOYFTv-S" name="b8_task10">
    <mxGraphModel dx="359" dy="227" grid="1" gridSize="10" guides="1" tooltips="1" connect="1" arrows="1" fold="1" page="1" pageScale="1" pageWidth="827" pageHeight="1169" math="0" shadow="0">
      <root>
        <mxCell id="0" />
        <mxCell id="1" parent="0" />
        <mxCell id="79UAcUbNcBuy5wdSypzF-2" style="edgeStyle=orthogonalEdgeStyle;rounded=0;orthogonalLoop=1;jettySize=auto;html=1;endArrow=none;endFill=0;entryX=0;entryY=0.75;entryDx=0;entryDy=0;" edge="1" parent="1" target="79UAcUbNcBuy5wdSypzF-1">
          <mxGeometry relative="1" as="geometry">
            <mxPoint x="110" y="260" as="targetPoint" />
            <mxPoint x="470" y="230" as="sourcePoint" />
            <Array as="points">
              <mxPoint x="410" y="230" />
              <mxPoint x="430" y="230" />
              <mxPoint x="430" y="150" />
              <mxPoint x="250" y="150" />
              <mxPoint x="250" y="220" />
              <mxPoint x="290" y="220" />
            </Array>
          </mxGeometry>
        </mxCell>
        <mxCell id="79UAcUbNcBuy5wdSypzF-1" value="Adder" style="rounded=0;whiteSpace=wrap;html=1;" vertex="1" parent="1">
          <mxGeometry x="290" y="205" width="120" height="60" as="geometry" />
        </mxCell>
        <mxCell id="9OXzPVExXORxpzD3qOLh-6" value="counter" style="text;html=1;align=center;verticalAlign=middle;whiteSpace=wrap;rounded=0;" vertex="1" parent="1">
          <mxGeometry x="450" y="205" width="20" height="30" as="geometry" />
        </mxCell>
        <mxCell id="9OXzPVExXORxpzD3qOLh-9" value="" style="group" vertex="1" connectable="0" parent="1">
          <mxGeometry x="120" y="196" width="170" height="149" as="geometry" />
        </mxCell>
        <mxCell id="zjmgt6EnqE4aE2yiWpHZ-2" style="edgeStyle=orthogonalEdgeStyle;rounded=0;orthogonalLoop=1;jettySize=auto;html=1;exitX=1;exitY=0.5;exitDx=0;exitDy=-5;exitPerimeter=0;entryX=0;entryY=0.5;entryDx=0;entryDy=0;" edge="1" parent="9OXzPVExXORxpzD3qOLh-9" source="zjmgt6EnqE4aE2yiWpHZ-1">
          <mxGeometry relative="1" as="geometry">
            <mxPoint x="170" y="55" as="targetPoint" />
          </mxGeometry>
        </mxCell>
        <mxCell id="9OXzPVExXORxpzD3qOLh-8" value="" style="group" vertex="1" connectable="0" parent="9OXzPVExXORxpzD3qOLh-9">
          <mxGeometry width="100" height="149" as="geometry" />
        </mxCell>
        <mxCell id="zjmgt6EnqE4aE2yiWpHZ-1" value="Mux" style="shadow=0;dashed=0;align=center;html=1;strokeWidth=1;shape=mxgraph.electrical.abstract.mux2;whiteSpace=wrap;points=[[0,0.21666666666666667,0,0,3],[0,0.65,0,0,3],[0.375,1,0,10,0],[1,0.5,0,0,-5]];" vertex="1" parent="9OXzPVExXORxpzD3qOLh-8">
          <mxGeometry x="20" width="80" height="120" as="geometry" />
        </mxCell>
        <mxCell id="9OXzPVExXORxpzD3qOLh-1" value="en" style="text;html=1;align=center;verticalAlign=middle;whiteSpace=wrap;rounded=0;" vertex="1" parent="9OXzPVExXORxpzD3qOLh-8">
          <mxGeometry x="50" y="119" width="20" height="30" as="geometry" />
        </mxCell>
        <mxCell id="9OXzPVExXORxpzD3qOLh-3" value="&quot;01&quot;" style="text;html=1;align=center;verticalAlign=middle;whiteSpace=wrap;rounded=0;" vertex="1" parent="9OXzPVExXORxpzD3qOLh-8">
          <mxGeometry x="-9" y="68" width="20" height="30" as="geometry" />
        </mxCell>
        <mxCell id="9OXzPVExXORxpzD3qOLh-5" value="0" style="text;html=1;align=center;verticalAlign=middle;whiteSpace=wrap;rounded=0;" vertex="1" parent="9OXzPVExXORxpzD3qOLh-8">
          <mxGeometry y="9" width="20" height="30" as="geometry" />
        </mxCell>
      </root>
    </mxGraphModel>
  </diagram>
</mxfile>
